<?xml version="1.0" encoding="UTF-8" standalone="no"?>
<!DOCTYPE svg PUBLIC "-//W3C//DTD SVG 1.1//EN"
 "http://www.w3.org/Graphics/SVG/1.1/DTD/svg11.dtd">
<!-- Generated by graphviz version 2.47.3 (20210619.1520)
 -->
<!-- Title: dependencies Pages: 1 -->
<svg width="436pt" height="174pt"
 viewBox="0.00 0.00 436.00 173.80" xmlns="http://www.w3.org/2000/svg" xmlns:xlink="http://www.w3.org/1999/xlink">
<g id="graph0" class="graph" transform="scale(1 1) rotate(0) translate(4 169.8)">
<title>dependencies</title>
<polygon fill="white" stroke="transparent" points="-4,4 -4,-169.8 432,-169.8 432,4 -4,4"/>
<text text-anchor="middle" x="214" y="-8.2" font-family="sans-serif" font-size="14.00">dependencies</text>
<g id="clust7" class="cluster">
<title>cluster_NgLoggerModule</title>
<polygon fill="none" stroke="black" stroke-dasharray="1,5" points="8,-32.8 8,-157.8 200,-157.8 200,-32.8 8,-32.8"/>
</g>
<g id="clust12" class="cluster">
<title>cluster_NgLoggerModule_providers</title>
<polygon fill="none" stroke="black" points="16,-40.8 16,-92.8 192,-92.8 192,-40.8 16,-40.8"/>
</g>
<g id="clust13" class="cluster">
<title>cluster_ScriptLoaderModule</title>
<polygon fill="none" stroke="black" stroke-dasharray="1,5" points="208,-32.8 208,-157.8 420,-157.8 420,-32.8 208,-32.8"/>
</g>
<g id="clust18" class="cluster">
<title>cluster_ScriptLoaderModule_providers</title>
<polygon fill="none" stroke="black" points="216,-40.8 216,-92.8 412,-92.8 412,-40.8 216,-40.8"/>
</g>
<!-- NgLoggerService -->
<g id="node1" class="node">
<title>NgLoggerService</title>
<ellipse fill="#fdb462" stroke="black" cx="104" cy="-66.8" rx="79.86" ry="18"/>
<text text-anchor="middle" x="104" y="-62.6" font-family="Times,serif" font-size="14.00">NgLoggerService</text>
</g>
<!-- NgLoggerModule -->
<g id="node2" class="node">
<title>NgLoggerModule</title>
<polygon fill="#8dd3c7" stroke="black" points="162.58,-149.8 159.58,-153.8 138.58,-153.8 135.58,-149.8 45.42,-149.8 45.42,-113.8 162.58,-113.8 162.58,-149.8"/>
<text text-anchor="middle" x="104" y="-127.6" font-family="Times,serif" font-size="14.00">NgLoggerModule</text>
</g>
<!-- NgLoggerService&#45;&gt;NgLoggerModule -->
<g id="edge1" class="edge">
<title>NgLoggerService&#45;&gt;NgLoggerModule</title>
<path fill="none" stroke="black" d="M104,-84.91C104,-84.91 104,-103.79 104,-103.79"/>
<polygon fill="black" stroke="black" points="100.5,-103.79 104,-113.79 107.5,-103.79 100.5,-103.79"/>
</g>
<!-- ScriptLoaderService -->
<g id="node3" class="node">
<title>ScriptLoaderService</title>
<ellipse fill="#fdb462" stroke="black" cx="314" cy="-66.8" rx="90.3" ry="18"/>
<text text-anchor="middle" x="314" y="-62.6" font-family="Times,serif" font-size="14.00">ScriptLoaderService</text>
</g>
<!-- ScriptLoaderModule -->
<g id="node4" class="node">
<title>ScriptLoaderModule</title>
<polygon fill="#8dd3c7" stroke="black" points="380.13,-149.8 377.13,-153.8 356.13,-153.8 353.13,-149.8 247.87,-149.8 247.87,-113.8 380.13,-113.8 380.13,-149.8"/>
<text text-anchor="middle" x="314" y="-127.6" font-family="Times,serif" font-size="14.00">ScriptLoaderModule</text>
</g>
<!-- ScriptLoaderService&#45;&gt;ScriptLoaderModule -->
<g id="edge2" class="edge">
<title>ScriptLoaderService&#45;&gt;ScriptLoaderModule</title>
<path fill="none" stroke="black" d="M314,-84.91C314,-84.91 314,-103.79 314,-103.79"/>
<polygon fill="black" stroke="black" points="310.5,-103.79 314,-113.79 317.5,-103.79 310.5,-103.79"/>
</g>
</g>
</svg>
