<?xml version="1.0" encoding="UTF-8" standalone="no"?>
<!DOCTYPE svg PUBLIC "-//W3C//DTD SVG 1.1//EN"
 "http://www.w3.org/Graphics/SVG/1.1/DTD/svg11.dtd">
<!-- Generated by graphviz version 2.47.3 (20210619.1520)
 -->
<!-- Title: dependencies Pages: 1 -->
<svg width="1622pt" height="253pt"
 viewBox="0.00 0.00 1622.00 252.80" xmlns="http://www.w3.org/2000/svg" xmlns:xlink="http://www.w3.org/1999/xlink">
<g id="graph0" class="graph" transform="scale(1 1) rotate(0) translate(4 248.8)">
<title>dependencies</title>
<polygon fill="white" stroke="transparent" points="-4,4 -4,-248.8 1618,-248.8 1618,4 -4,4"/>
<text text-anchor="middle" x="807" y="-8.2" font-family="sans-serif" font-size="14.00">dependencies</text>
<g id="clust1" class="cluster">
<title>cluster_AppModule</title>
<polygon fill="none" stroke="black" stroke-dasharray="1,5" points="8,-32.8 8,-236.8 546,-236.8 546,-32.8 8,-32.8"/>
</g>
<g id="clust2" class="cluster">
<title>cluster_AppModule_declarations</title>
<polygon fill="none" stroke="black" points="16,-40.8 16,-92.8 138,-92.8 138,-40.8 16,-40.8"/>
</g>
<g id="clust4" class="cluster">
<title>cluster_AppModule_imports</title>
<polygon fill="none" stroke="black" points="146,-40.8 146,-92.8 538,-92.8 538,-40.8 146,-40.8"/>
</g>
<g id="clust6" class="cluster">
<title>cluster_AppModule_bootstrap</title>
<polygon fill="none" stroke="black" points="228,-176.8 228,-228.8 352,-228.8 352,-176.8 228,-176.8"/>
</g>
<g id="clust20" class="cluster">
<title>cluster_DashboardModule</title>
<polygon fill="none" stroke="black" stroke-dasharray="1,5" points="554,-100.8 554,-168.8 898,-168.8 898,-100.8 554,-100.8"/>
</g>
<g id="clust21" class="cluster">
<title>cluster_DashboardModule_declarations</title>
<polygon fill="none" stroke="black" points="732,-108.8 732,-160.8 890,-160.8 890,-108.8 732,-108.8"/>
</g>
<g id="clust24" class="cluster">
<title>cluster_DashboardModule_exports</title>
<polygon fill="none" stroke="black" points="562,-108.8 562,-160.8 724,-160.8 724,-108.8 562,-108.8"/>
</g>
<g id="clust27" class="cluster">
<title>cluster_MainModule</title>
<polygon fill="none" stroke="black" stroke-dasharray="1,5" points="906,-100.8 906,-168.8 1186,-168.8 1186,-100.8 906,-100.8"/>
</g>
<g id="clust28" class="cluster">
<title>cluster_MainModule_declarations</title>
<polygon fill="none" stroke="black" points="1052,-108.8 1052,-160.8 1178,-160.8 1178,-108.8 1052,-108.8"/>
</g>
<g id="clust31" class="cluster">
<title>cluster_MainModule_exports</title>
<polygon fill="none" stroke="black" points="914,-108.8 914,-160.8 1044,-160.8 1044,-108.8 914,-108.8"/>
</g>
<g id="clust34" class="cluster">
<title>cluster_NgLoggerModule</title>
<polygon fill="none" stroke="black" stroke-dasharray="1,5" points="1194,-32.8 1194,-160.8 1386,-160.8 1386,-32.8 1194,-32.8"/>
</g>
<g id="clust39" class="cluster">
<title>cluster_NgLoggerModule_providers</title>
<polygon fill="none" stroke="black" points="1202,-40.8 1202,-92.8 1378,-92.8 1378,-40.8 1202,-40.8"/>
</g>
<g id="clust40" class="cluster">
<title>cluster_ScriptLoaderModule</title>
<polygon fill="none" stroke="black" stroke-dasharray="1,5" points="1394,-32.8 1394,-160.8 1606,-160.8 1606,-32.8 1394,-32.8"/>
</g>
<g id="clust45" class="cluster">
<title>cluster_ScriptLoaderModule_providers</title>
<polygon fill="none" stroke="black" points="1402,-40.8 1402,-92.8 1598,-92.8 1598,-40.8 1402,-40.8"/>
</g>
<!-- AppComponent -->
<g id="node1" class="node">
<title>AppComponent</title>
<polygon fill="#ffffb3" stroke="black" points="129.94,-84.8 24.06,-84.8 24.06,-48.8 129.94,-48.8 129.94,-84.8"/>
<text text-anchor="middle" x="77" y="-62.6" font-family="Times,serif" font-size="14.00">AppComponent</text>
</g>
<!-- AppModule -->
<g id="node2" class="node">
<title>AppModule</title>
<polygon fill="#8dd3c7" stroke="black" points="331.66,-152.8 328.66,-156.8 307.66,-156.8 304.66,-152.8 248.34,-152.8 248.34,-116.8 331.66,-116.8 331.66,-152.8"/>
<text text-anchor="middle" x="290" y="-130.6" font-family="Times,serif" font-size="14.00">AppModule</text>
</g>
<!-- AppComponent&#45;&gt;AppModule -->
<g id="edge1" class="edge">
<title>AppComponent&#45;&gt;AppModule</title>
<path fill="none" stroke="black" d="M77,-85.02C77,-105.17 77,-134.8 77,-134.8 77,-134.8 238.17,-134.8 238.17,-134.8"/>
<polygon fill="black" stroke="black" points="238.17,-138.3 248.17,-134.8 238.17,-131.3 238.17,-138.3"/>
</g>
<!-- AppComponent  -->
<g id="node6" class="node">
<title>AppComponent </title>
<polygon fill="#80b1d3" stroke="black" points="344.44,-220.8 235.56,-220.8 235.56,-184.8 344.44,-184.8 344.44,-220.8"/>
<text text-anchor="middle" x="290" y="-198.6" font-family="Times,serif" font-size="14.00">AppComponent </text>
</g>
<!-- AppModule&#45;&gt;AppComponent  -->
<g id="edge5" class="edge">
<title>AppModule&#45;&gt;AppComponent </title>
<path fill="none" stroke="black" stroke-dasharray="1,5" d="M290,-153.02C290,-153.02 290,-174.53 290,-174.53"/>
<polygon fill="black" stroke="black" points="286.5,-174.53 290,-184.53 293.5,-174.53 286.5,-174.53"/>
</g>
<!-- BuildConfigModule -->
<g id="node3" class="node">
<title>BuildConfigModule</title>
<polygon fill="#8dd3c7" stroke="black" points="283.56,-84.8 280.56,-88.8 259.56,-88.8 256.56,-84.8 154.44,-84.8 154.44,-48.8 283.56,-48.8 283.56,-84.8"/>
<text text-anchor="middle" x="219" y="-62.6" font-family="Times,serif" font-size="14.00">BuildConfigModule</text>
</g>
<!-- BuildConfigModule&#45;&gt;AppModule -->
<g id="edge2" class="edge">
<title>BuildConfigModule&#45;&gt;AppModule</title>
<path fill="none" stroke="black" d="M265.97,-85.02C265.97,-85.02 265.97,-106.53 265.97,-106.53"/>
<polygon fill="black" stroke="black" points="262.47,-106.53 265.97,-116.53 269.47,-106.53 262.47,-106.53"/>
</g>
<!-- DashboardModule -->
<g id="node4" class="node">
<title>DashboardModule</title>
<polygon fill="#8dd3c7" stroke="black" points="422.19,-84.8 419.19,-88.8 398.19,-88.8 395.19,-84.8 301.81,-84.8 301.81,-48.8 422.19,-48.8 422.19,-84.8"/>
<text text-anchor="middle" x="362" y="-62.6" font-family="Times,serif" font-size="14.00">DashboardModule</text>
</g>
<!-- DashboardModule&#45;&gt;AppModule -->
<g id="edge3" class="edge">
<title>DashboardModule&#45;&gt;AppModule</title>
<path fill="none" stroke="black" d="M316.87,-85.02C316.87,-85.02 316.87,-106.53 316.87,-106.53"/>
<polygon fill="black" stroke="black" points="313.37,-106.53 316.87,-116.53 320.37,-106.53 313.37,-106.53"/>
</g>
<!-- DashboardComponent  -->
<g id="node8" class="node">
<title>DashboardComponent </title>
<polygon fill="#fb8072" stroke="black" points="715.97,-152.8 570.03,-152.8 570.03,-116.8 715.97,-116.8 715.97,-152.8"/>
<text text-anchor="middle" x="643" y="-130.6" font-family="Times,serif" font-size="14.00">DashboardComponent </text>
</g>
<!-- DashboardModule&#45;&gt;DashboardComponent  -->
<g id="edge7" class="edge">
<title>DashboardModule&#45;&gt;DashboardComponent </title>
<path fill="none" stroke="black" stroke-dasharray="5,2" d="M396.22,-85.07C396.22,-103.36 396.22,-128.8 396.22,-128.8 396.22,-128.8 559.96,-128.8 559.96,-128.8"/>
<polygon fill="black" stroke="black" points="559.96,-132.3 569.96,-128.8 559.96,-125.3 559.96,-132.3"/>
</g>
<!-- MainModule -->
<g id="node5" class="node">
<title>MainModule</title>
<polygon fill="#8dd3c7" stroke="black" points="529.6,-84.8 526.6,-88.8 505.6,-88.8 502.6,-84.8 440.4,-84.8 440.4,-48.8 529.6,-48.8 529.6,-84.8"/>
<text text-anchor="middle" x="485" y="-62.6" font-family="Times,serif" font-size="14.00">MainModule</text>
</g>
<!-- MainModule&#45;&gt;AppModule -->
<g id="edge4" class="edge">
<title>MainModule&#45;&gt;AppModule</title>
<path fill="none" stroke="black" d="M485,-85.09C485,-107.01 485,-140.8 485,-140.8 485,-140.8 341.83,-140.8 341.83,-140.8"/>
<polygon fill="black" stroke="black" points="341.83,-137.3 331.83,-140.8 341.83,-144.3 341.83,-137.3"/>
</g>
<!-- MainComponent  -->
<g id="node10" class="node">
<title>MainComponent </title>
<polygon fill="#fb8072" stroke="black" points="1036.38,-152.8 921.62,-152.8 921.62,-116.8 1036.38,-116.8 1036.38,-152.8"/>
<text text-anchor="middle" x="979" y="-130.6" font-family="Times,serif" font-size="14.00">MainComponent </text>
</g>
<!-- MainModule&#45;&gt;MainComponent  -->
<g id="edge9" class="edge">
<title>MainModule&#45;&gt;MainComponent </title>
<path fill="none" stroke="black" stroke-dasharray="5,2" d="M529.71,-72.8C651.31,-72.8 979,-72.8 979,-72.8 979,-72.8 979,-106.53 979,-106.53"/>
<polygon fill="black" stroke="black" points="975.5,-106.53 979,-116.53 982.5,-106.53 975.5,-106.53"/>
</g>
<!-- DashboardComponent -->
<g id="node7" class="node">
<title>DashboardComponent</title>
<polygon fill="#ffffb3" stroke="black" points="881.97,-152.8 740.03,-152.8 740.03,-116.8 881.97,-116.8 881.97,-152.8"/>
<text text-anchor="middle" x="811" y="-130.6" font-family="Times,serif" font-size="14.00">DashboardComponent</text>
</g>
<!-- DashboardComponent&#45;&gt;DashboardModule -->
<g id="edge6" class="edge">
<title>DashboardComponent&#45;&gt;DashboardModule</title>
<path fill="none" stroke="black" d="M811,-116.61C811,-108.52 811,-100.8 811,-100.8 811,-100.8 370.34,-100.8 370.34,-100.8 370.34,-100.8 370.34,-94.99 370.34,-94.99"/>
<polygon fill="black" stroke="black" points="373.84,-94.99 370.34,-84.99 366.84,-94.99 373.84,-94.99"/>
</g>
<!-- MainComponent -->
<g id="node9" class="node">
<title>MainComponent</title>
<polygon fill="#ffffb3" stroke="black" points="1170.38,-152.8 1059.62,-152.8 1059.62,-116.8 1170.38,-116.8 1170.38,-152.8"/>
<text text-anchor="middle" x="1115" y="-130.6" font-family="Times,serif" font-size="14.00">MainComponent</text>
</g>
<!-- MainComponent&#45;&gt;MainModule -->
<g id="edge8" class="edge">
<title>MainComponent&#45;&gt;MainModule</title>
<path fill="none" stroke="black" d="M1115,-116.51C1115,-94.59 1115,-60.8 1115,-60.8 1115,-60.8 539.55,-60.8 539.55,-60.8"/>
<polygon fill="black" stroke="black" points="539.55,-57.3 529.55,-60.8 539.55,-64.3 539.55,-57.3"/>
</g>
<!-- NgLoggerService -->
<g id="node11" class="node">
<title>NgLoggerService</title>
<ellipse fill="#fdb462" stroke="black" cx="1290" cy="-66.8" rx="79.86" ry="18"/>
<text text-anchor="middle" x="1290" y="-62.6" font-family="Times,serif" font-size="14.00">NgLoggerService</text>
</g>
<!-- NgLoggerModule -->
<g id="node12" class="node">
<title>NgLoggerModule</title>
<polygon fill="#8dd3c7" stroke="black" points="1348.58,-152.8 1345.58,-156.8 1324.58,-156.8 1321.58,-152.8 1231.42,-152.8 1231.42,-116.8 1348.58,-116.8 1348.58,-152.8"/>
<text text-anchor="middle" x="1290" y="-130.6" font-family="Times,serif" font-size="14.00">NgLoggerModule</text>
</g>
<!-- NgLoggerService&#45;&gt;NgLoggerModule -->
<g id="edge10" class="edge">
<title>NgLoggerService&#45;&gt;NgLoggerModule</title>
<path fill="none" stroke="black" d="M1290,-85.02C1290,-85.02 1290,-106.53 1290,-106.53"/>
<polygon fill="black" stroke="black" points="1286.5,-106.53 1290,-116.53 1293.5,-106.53 1286.5,-106.53"/>
</g>
<!-- ScriptLoaderService -->
<g id="node13" class="node">
<title>ScriptLoaderService</title>
<ellipse fill="#fdb462" stroke="black" cx="1500" cy="-66.8" rx="90.3" ry="18"/>
<text text-anchor="middle" x="1500" y="-62.6" font-family="Times,serif" font-size="14.00">ScriptLoaderService</text>
</g>
<!-- ScriptLoaderModule -->
<g id="node14" class="node">
<title>ScriptLoaderModule</title>
<polygon fill="#8dd3c7" stroke="black" points="1566.13,-152.8 1563.13,-156.8 1542.13,-156.8 1539.13,-152.8 1433.87,-152.8 1433.87,-116.8 1566.13,-116.8 1566.13,-152.8"/>
<text text-anchor="middle" x="1500" y="-130.6" font-family="Times,serif" font-size="14.00">ScriptLoaderModule</text>
</g>
<!-- ScriptLoaderService&#45;&gt;ScriptLoaderModule -->
<g id="edge11" class="edge">
<title>ScriptLoaderService&#45;&gt;ScriptLoaderModule</title>
<path fill="none" stroke="black" d="M1500,-85.02C1500,-85.02 1500,-106.53 1500,-106.53"/>
<polygon fill="black" stroke="black" points="1496.5,-106.53 1500,-116.53 1503.5,-106.53 1496.5,-106.53"/>
</g>
</g>
</svg>
