<?xml version="1.0" encoding="UTF-8" standalone="no"?>
<!DOCTYPE svg PUBLIC "-//W3C//DTD SVG 1.1//EN"
 "http://www.w3.org/Graphics/SVG/1.1/DTD/svg11.dtd">
<!-- Generated by graphviz version 2.47.3 (20210619.1520)
 -->
<!-- Title: dependencies Pages: 1 -->
<svg width="562pt" height="247pt"
 viewBox="0.00 0.00 562.00 246.80" xmlns="http://www.w3.org/2000/svg" xmlns:xlink="http://www.w3.org/1999/xlink">
<g id="graph0" class="graph" transform="scale(1 1) rotate(0) translate(4 242.8)">
<title>dependencies</title>
<polygon fill="white" stroke="transparent" points="-4,4 -4,-242.8 558,-242.8 558,4 -4,4"/>
<text text-anchor="middle" x="277" y="-8.2" font-family="sans-serif" font-size="14.00">dependencies</text>
<g id="clust1" class="cluster">
<title>cluster_AppModule</title>
<polygon fill="none" stroke="black" stroke-dasharray="1,5" points="8,-32.8 8,-230.8 546,-230.8 546,-32.8 8,-32.8"/>
</g>
<g id="clust6" class="cluster">
<title>cluster_AppModule_bootstrap</title>
<polygon fill="none" stroke="black" points="198,-170.8 198,-222.8 322,-222.8 322,-170.8 198,-170.8"/>
</g>
<g id="clust4" class="cluster">
<title>cluster_AppModule_imports</title>
<polygon fill="none" stroke="black" points="146,-40.8 146,-92.8 538,-92.8 538,-40.8 146,-40.8"/>
</g>
<g id="clust2" class="cluster">
<title>cluster_AppModule_declarations</title>
<polygon fill="none" stroke="black" points="16,-40.8 16,-92.8 138,-92.8 138,-40.8 16,-40.8"/>
</g>
<!-- AppComponent -->
<g id="node1" class="node">
<title>AppComponent</title>
<polygon fill="#ffffb3" stroke="black" points="129.94,-84.8 24.06,-84.8 24.06,-48.8 129.94,-48.8 129.94,-84.8"/>
<text text-anchor="middle" x="77" y="-62.6" font-family="Times,serif" font-size="14.00">AppComponent</text>
</g>
<!-- AppModule -->
<g id="node2" class="node">
<title>AppModule</title>
<polygon fill="#8dd3c7" stroke="black" points="301.66,-149.8 298.66,-153.8 277.66,-153.8 274.66,-149.8 218.34,-149.8 218.34,-113.8 301.66,-113.8 301.66,-149.8"/>
<text text-anchor="middle" x="260" y="-127.6" font-family="Times,serif" font-size="14.00">AppModule</text>
</g>
<!-- AppComponent&#45;&gt;AppModule -->
<g id="edge1" class="edge">
<title>AppComponent&#45;&gt;AppModule</title>
<path fill="none" stroke="black" d="M77,-84.91C77,-104.14 77,-131.8 77,-131.8 77,-131.8 208.02,-131.8 208.02,-131.8"/>
<polygon fill="black" stroke="black" points="208.02,-135.3 218.02,-131.8 208.02,-128.3 208.02,-135.3"/>
</g>
<!-- AppComponent  -->
<g id="node6" class="node">
<title>AppComponent </title>
<polygon fill="#80b1d3" stroke="black" points="314.44,-214.8 205.56,-214.8 205.56,-178.8 314.44,-178.8 314.44,-214.8"/>
<text text-anchor="middle" x="260" y="-192.6" font-family="Times,serif" font-size="14.00">AppComponent </text>
</g>
<!-- AppModule&#45;&gt;AppComponent  -->
<g id="edge5" class="edge">
<title>AppModule&#45;&gt;AppComponent </title>
<path fill="none" stroke="black" stroke-dasharray="1,5" d="M260,-149.91C260,-149.91 260,-168.79 260,-168.79"/>
<polygon fill="black" stroke="black" points="256.5,-168.79 260,-178.79 263.5,-168.79 256.5,-168.79"/>
</g>
<!-- BuildConfigModule -->
<g id="node3" class="node">
<title>BuildConfigModule</title>
<polygon fill="#8dd3c7" stroke="black" points="529.56,-84.8 526.56,-88.8 505.56,-88.8 502.56,-84.8 400.44,-84.8 400.44,-48.8 529.56,-48.8 529.56,-84.8"/>
<text text-anchor="middle" x="465" y="-62.6" font-family="Times,serif" font-size="14.00">BuildConfigModule</text>
</g>
<!-- BuildConfigModule&#45;&gt;AppModule -->
<g id="edge2" class="edge">
<title>BuildConfigModule&#45;&gt;AppModule</title>
<path fill="none" stroke="black" d="M465,-84.91C465,-104.14 465,-131.8 465,-131.8 465,-131.8 311.98,-131.8 311.98,-131.8"/>
<polygon fill="black" stroke="black" points="311.98,-128.3 301.98,-131.8 311.98,-135.3 311.98,-128.3"/>
</g>
<!-- DashboardModule -->
<g id="node4" class="node">
<title>DashboardModule</title>
<polygon fill="#8dd3c7" stroke="black" points="382.19,-84.8 379.19,-88.8 358.19,-88.8 355.19,-84.8 261.81,-84.8 261.81,-48.8 382.19,-48.8 382.19,-84.8"/>
<text text-anchor="middle" x="322" y="-62.6" font-family="Times,serif" font-size="14.00">DashboardModule</text>
</g>
<!-- DashboardModule&#45;&gt;AppModule -->
<g id="edge3" class="edge">
<title>DashboardModule&#45;&gt;AppModule</title>
<path fill="none" stroke="black" d="M281.87,-84.91C281.87,-84.91 281.87,-103.79 281.87,-103.79"/>
<polygon fill="black" stroke="black" points="278.37,-103.79 281.87,-113.79 285.37,-103.79 278.37,-103.79"/>
</g>
<!-- MainModule -->
<g id="node5" class="node">
<title>MainModule</title>
<polygon fill="#8dd3c7" stroke="black" points="243.6,-84.8 240.6,-88.8 219.6,-88.8 216.6,-84.8 154.4,-84.8 154.4,-48.8 243.6,-48.8 243.6,-84.8"/>
<text text-anchor="middle" x="199" y="-62.6" font-family="Times,serif" font-size="14.00">MainModule</text>
</g>
<!-- MainModule&#45;&gt;AppModule -->
<g id="edge4" class="edge">
<title>MainModule&#45;&gt;AppModule</title>
<path fill="none" stroke="black" d="M230.86,-84.91C230.86,-84.91 230.86,-103.79 230.86,-103.79"/>
<polygon fill="black" stroke="black" points="227.36,-103.79 230.86,-113.79 234.36,-103.79 227.36,-103.79"/>
</g>
</g>
</svg>
